<?xml version="1.0" encoding="utf-8"?>
<!-- Generator: Adobe Illustrator 21.0.0, SVG Export Plug-In . SVG Version: 6.00 Build 0)  -->
<svg version="1.1" id="Layer_1" xmlns="http://www.w3.org/2000/svg" xmlns:xlink="http://www.w3.org/1999/xlink" x="0px" y="0px"
	 viewBox="0 0 266 197" style="enable-background:new 0 0 266 197;" xml:space="preserve">
<style type="text/css">
	.st0{fill:#572700;}
</style>
<g>
	<rect x="9.6" y="173.4" class="st0" width="256.8" height="16.2"/>
	<rect x="23.8" y="40.9" class="st0" width="237.7" height="9.8"/>
	<rect x="23.8" y="13" class="st0" width="237.7" height="4.1"/>
	<rect x="243.3" y="45.8" class="st0" width="7.5" height="140.8"/>
	<rect x="210.6" y="45.8" class="st0" width="7.5" height="140.8"/>
	<rect x="244.3" y="15.1" class="st0" width="5.6" height="27.7"/>
	<g>
		<rect x="233.4" y="15.1" class="st0" width="4" height="27.7"/>
		<rect x="222.8" y="15.1" class="st0" width="4" height="27.7"/>
		<rect x="212.2" y="15.1" class="st0" width="4" height="27.7"/>
		<rect x="201.5" y="15.1" class="st0" width="4" height="27.7"/>
		<rect x="190.9" y="15.1" class="st0" width="4" height="27.7"/>
		<rect x="180.3" y="15.1" class="st0" width="4" height="27.7"/>
		<rect x="169.7" y="15.1" class="st0" width="4" height="27.7"/>
		<rect x="159.1" y="15.1" class="st0" width="4" height="27.7"/>
		<rect x="148.5" y="15.1" class="st0" width="4" height="27.7"/>
		<rect x="137.8" y="15.1" class="st0" width="4" height="27.7"/>
		<rect x="127.2" y="15.1" class="st0" width="4" height="27.7"/>
		<rect x="116.6" y="15.1" class="st0" width="4" height="27.7"/>
		<rect x="106" y="15.1" class="st0" width="4" height="27.7"/>
		<rect x="95.4" y="15.1" class="st0" width="4" height="27.7"/>
		<rect x="84.8" y="15.1" class="st0" width="4" height="27.7"/>
		<rect x="74.1" y="15.1" class="st0" width="4" height="27.7"/>
		<rect x="63.5" y="15.1" class="st0" width="4" height="27.7"/>
		<rect x="52.9" y="15.1" class="st0" width="4" height="27.7"/>
		<rect x="42.3" y="15.1" class="st0" width="4" height="27.7"/>
		<rect x="31.7" y="15.1" class="st0" width="4" height="27.7"/>
	</g>
</g>
</svg>
