<?xml version="1.0" encoding="utf-8"?>
<!-- Generator: Adobe Illustrator 21.0.0, SVG Export Plug-In . SVG Version: 6.00 Build 0)  -->
<svg version="1.1" id="Layer_1" xmlns="http://www.w3.org/2000/svg" xmlns:xlink="http://www.w3.org/1999/xlink" x="0px" y="0px"
	 viewBox="0 0 58 97" style="enable-background:new 0 0 58 97;" xml:space="preserve">
<style type="text/css">
	.st0{fill:#6D6E71;}
	.st1{fill:#72CCD2;}
	.st2{fill:#A7600C;}
	.st3{opacity:0.4;fill:#6D6E71;}
</style>
<g>
	<rect x="26.6" y="2.4" class="st0" width="4.8" height="86.9"/>
	<path class="st0" d="M29,1C5.5,1,3.8,26.2,3.8,26.2v68.4H29h25.2V26.2C54.2,26.2,52.5,1,29,1z"/>
	<path class="st1" d="M29,4.3C8.2,4.3,6.7,26.6,6.7,26.6v64.6H29h22.3V26.6C51.3,26.6,49.8,4.3,29,4.3z"/>
	<rect x="6" y="29.3" class="st2" width="46" height="4.8"/>
	<rect x="6" y="31.7" class="st3" width="46" height="2.4"/>
	<rect x="26.6" y="2.4" class="st2" width="4.8" height="86.9"/>
	<rect x="29" y="2.4" class="st3" width="2.4" height="86.9"/>
	<path class="st2" d="M29,1C5.5,1,3.8,26.2,3.8,26.2v68.4H29h25.2V26.2C54.2,26.2,52.5,1,29,1z M51.3,91.3H29H6.7V26.6
		c0,0,1.5-22.3,22.3-22.3c20.8,0,22.3,22.3,22.3,22.3V91.3z"/>
	<g>
		<rect x="1.8" y="86.6" class="st2" width="54.5" height="9.1"/>
		<rect x="1.8" y="92.6" class="st3" width="54.5" height="3.4"/>
	</g>
</g>
</svg>
