<?xml version="1.0" encoding="utf-8"?>
<!-- Generator: Adobe Illustrator 21.0.0, SVG Export Plug-In . SVG Version: 6.00 Build 0)  -->
<svg version="1.1" id="Layer_1" xmlns="http://www.w3.org/2000/svg" xmlns:xlink="http://www.w3.org/1999/xlink" x="0px" y="0px"
	 viewBox="0 0 55 61" style="enable-background:new 0 0 55 61;" xml:space="preserve">
<style type="text/css">
	.st0{fill:#6D6E71;}
	.st1{fill:#72CCD2;}
	.st2{fill:#A7600C;}
	.st3{opacity:0.4;fill:#6D6E71;}
</style>
<g>
	<rect x="25.1" y="2.1" class="st0" width="4.8" height="51.6"/>
	<path class="st0" d="M27.5,0.7C4,0.7,2.3,25.8,2.3,25.8v33.1h25.2h25.2V25.8C52.7,25.8,51,0.7,27.5,0.7z"/>
	<path class="st1" d="M27.5,4C6.7,4,5.2,26.3,5.2,26.3v29.3h22.3h22.3V26.3C49.8,26.3,48.3,4,27.5,4z"/>
	<rect x="4.5" y="29" class="st2" width="46" height="4.8"/>
	<rect x="4.5" y="31.4" class="st3" width="46" height="2.4"/>
	<rect x="25.1" y="2.1" class="st2" width="4.8" height="51.6"/>
	<rect x="27.5" y="2.1" class="st3" width="2.4" height="51.6"/>
	<path class="st2" d="M27.5,0.7C4,0.7,2.3,25.8,2.3,25.8v33.1h25.2h25.2V25.8C52.7,25.8,51,0.7,27.5,0.7z M49.8,55.6H27.5H5.2V26.3
		C5.2,26.3,6.7,4,27.5,4c20.8,0,22.3,22.3,22.3,22.3V55.6z"/>
	<g>
		<rect x="0.3" y="50.9" class="st2" width="54.5" height="9.1"/>
		<rect x="0.3" y="56.9" class="st3" width="54.5" height="3.4"/>
	</g>
</g>
</svg>
