<?xml version="1.0" encoding="utf-8"?>
<!-- Generator: Adobe Illustrator 21.0.0, SVG Export Plug-In . SVG Version: 6.00 Build 0)  -->
<svg version="1.1" id="Layer_1" xmlns="http://www.w3.org/2000/svg" xmlns:xlink="http://www.w3.org/1999/xlink" x="0px" y="0px"
	 viewBox="0 0 1366 768" style="enable-background:new 0 0 1366 768;" xml:space="preserve">
<style type="text/css">
	.st0{fill:#E9EEFF;}
</style>
<path class="st0" d="M1365.8,422.6V768H0.2V410.3h1.8v79.6h4.4V411h6.7l8.9-16.8h6.2l0.1-7.9l13.5,0.1v7.9h4.9l9.1,17.1l7,0.1v82.9
	h3.3V486h3.3V329.9h9.4v-7L92,310.6v-10.4h9.9l0-13.8l6.1,0l0-22.6h4.4l0,22.6l6.1,0l-0.1,13.7h9.8v10.1l16.1,14.7v5.2h7.7v44.7H174
	v26.9h8.7v36.7h19.1v-80.5h6.1v-32.8h9.2v-109l7.8,0.1v-3.3h11.5l0.1-19.4l3.5,0.1l0,19.3h41.4v4.1l8,0.1v95.5l6.4,5.8h16.8v-56.9
	l23.4-21.4h38.8v16.5h9.4v62.1h11.4v-26.3h26.1V325h6.7V212.7h4.4v-4.5h16.3v-11h16v11h16.3v4.5h4.9v129.8h12.4V123.9h6.1l0-36.8
	l7.3-0.2l0.2,37h43.1l0.1-76l7.4,0.1l0.1,75.9h6.4v282.2h10V228h4.8v-6.5h6.6v6.5h6.6v-1.9h5.1v1.9h5.8v-1.9h7.3v1.9h8v-4.8h5.5v4.8
	h2.6v-1.9h5.1v1.9h6.8l0.3,164.5V406l1.5,0l8.7-0.1V211.1h23.1v-10.9l10.5,0v10.9h7.8v-1.7h7.8v1.7h7.8v-1.7h3.9v1.7h4.8v183.3
	l7.7,0.1l14.4,21.7l1.9,2.9V251.5h4.2v-7h4.1v3.4h2.7v3.6h23.1v-2.2h6.8v2.2h5.4v-16.1l2.7,0v16.2h20.4v-3.2h3.2v3.2h2.2v173h30.8
	V171.4l35-7.3l1.1-29.4c-3.5-1.5-5.9-4.4-5.9-7.8c0-3.6,2.7-6.7,6.7-8.2l2.9-58.8l3-59.9l1.4,59.9l2.5,58.9c3.8,1.5,6.5,4.5,6.5,8.1
	c0,3.3-2.3,6.2-5.8,7.8l1.5,29.7l32,6.5v247.9h23.8V270.9l21.6,0l0.1-16l7.3,0l0.1-11.7l13.1-0.1V255l5.2,0v15.9l42.3,0l0,9.6h12
	v39.9h3.9l21.6,17.6v57h16v-4.6h19.5l0.1,4.6h21.8v-15.4h9.7v-11.9h12.4v11.9h4v46.2h11v20.3h10.7l0.1-40.6h11.7v-11h23.1v17.4h6.9
	l-0.1,35.5l20.1,0.1v-6.1h2.3v-6h9.7l0-7.3l17.9,0l0,7.3h10.4v6h14.9v7h16.9V433h13v11.3h10.7v-21.7H1365.8"/>
</svg>
