<?xml version="1.0" encoding="utf-8"?>
<!-- Generator: Adobe Illustrator 21.0.0, SVG Export Plug-In . SVG Version: 6.00 Build 0)  -->
<svg version="1.1" id="Layer_1" xmlns="http://www.w3.org/2000/svg" xmlns:xlink="http://www.w3.org/1999/xlink" x="0px" y="0px"
	 viewBox="0 0 1366 768" style="enable-background:new 0 0 1366 768;" xml:space="preserve">
<style type="text/css">
	.st0{fill:#AFB9EF;}
	.st1{fill:#9AA9FF;}
</style>
<g>
	<rect x="528.8" y="494.4" class="st0" width="0.5" height="0.8"/>
	<path class="st1" d="M1323.1,525.7v-36.2h-20.8v-81.3h-28.6v48.3h-29.9V440h-28.6v-57.1h-55.9v-24.2h-81.9v20.9h-37.7v-28.6h-35.1
		v-67h-14.3l-48.1,27.5V339h-29.9v27.5h-31.2v-80.2h-15.6v-13.2h-11.7v12.1h-15.6v123h-44.2v-52.7h-49.4V384h-63.7v-50.5h-13v-11
		H633v9.9h-10.4v47.2h-16.6v-38.1c0-4.3,0.1-8.8,0-13.4v-2.7h0c-0.8-49.6-8.4-114.9-43.1-111.6c-28,2.6-33.8,64.7-34.1,111.6h-0.1
		v52h-20.4v-57.1h-81.9v56h-49.4v26.4h-15.6V288.4H347v-30.8h-5.2v30.8h-16.9v115.3h-45.5v-27.5h-35.1v-13.2h-46.8v14.3h-49.4v71.4
		h-28.6v108.7H0v208.3l1366,2.2V525.7H1323.1z"/>
</g>
</svg>
