<?xml version="1.0" encoding="utf-8"?>
<!-- Generator: Adobe Illustrator 21.0.0, SVG Export Plug-In . SVG Version: 6.00 Build 0)  -->
<svg version="1.1" id="Layer_1" xmlns="http://www.w3.org/2000/svg" xmlns:xlink="http://www.w3.org/1999/xlink" x="0px" y="0px"
	 viewBox="0 0 1366 768" style="enable-background:new 0 0 1366 768;" xml:space="preserve">
<style type="text/css">
	.st0{fill:#7F8BFF;}
</style>
<g>
	<polygon class="st0" points="0,762.2 0,556.5 81.8,556.5 81.8,500.5 81.8,489.6 123.7,489.6 123.7,419.5 159.8,419.5 159.8,489.6 
		185.1,489.6 185.1,464.6 197.8,464.6 197.8,451.2 280.6,451.2 280.6,464.6 293.3,464.6 293.3,489.6 342,489.6 342,438.7 
		367.3,438.7 367.3,489.6 391.7,489.6 391.7,419.5 402.4,419.5 402.4,409.5 486.2,409.5 486.2,419.5 496.9,419.5 496.9,447 
		525.2,447 525.2,475.4 578.7,475.4 578.7,492.2 660.6,492.2 660.6,422 693.7,422 693.7,407.8 710.3,407.8 710.3,422 743.4,422 
		743.4,457.1 770.7,457.1 770.7,478.8 877.9,478.8 877.9,412 995.8,412 995.8,439.5 1076.6,439.5 1076.6,462.9 1115.6,462.9 
		1115.6,413.6 1131.2,413.6 1131.2,405.3 1166.3,405.3 1166.3,413.6 1179.9,413.6 1179.9,462.9 1219.9,462.9 1219.9,493 1259.8,493 
		1259.8,479.6 1283.2,479.6 1283.2,511.4 1330.9,511.4 1330.9,553.1 1366,553.1 1366,562.3 1366,768 0,768 	"/>
</g>
</svg>
