<?xml version="1.0" encoding="utf-8"?>
<!-- Generator: Adobe Illustrator 21.0.0, SVG Export Plug-In . SVG Version: 6.00 Build 0)  -->
<svg version="1.1" id="Layer_1" xmlns="http://www.w3.org/2000/svg" xmlns:xlink="http://www.w3.org/1999/xlink" x="0px" y="0px"
	 viewBox="0 0 1366 768" style="enable-background:new 0 0 1366 768;" xml:space="preserve">
<style type="text/css">
	.st0{fill:#B1C6FF;}
</style>
<g>
	<polygon class="st0" points="81.3,768 81.3,553.5 166.7,553.5 166.7,438.1 206.8,438.1 206.8,246.2 224.9,246.2 224.9,232.9 
		271.5,232.9 271.5,245.1 288.3,245.1 288.3,357.1 322,357.1 322,339.4 406.1,339.4 406.1,315 417.7,315 417.7,144.1 434.6,144.1 
		434.6,124.2 447.5,124.2 447.5,98.6 459.1,98.6 459.1,123 470.8,123 470.8,145.2 490.2,145.2 490.2,330.5 544.5,330.5 544.5,292.8 
		604.1,292.8 604.1,334.9 637.7,334.9 637.7,245.1 670.1,245.1 670.1,292.8 681.7,292.8 681.7,348.2 681.7,358.2 725.7,358.2 
		725.7,187.4 799.5,116.4 813.7,116.4 813.7,317.2 838.3,317.2 838.3,293.9 917.2,293.9 917.2,317.2 940.5,317.2 940.5,112 
		966.4,112 966.4,94.2 1019.4,94.2 1019.4,113.1 1045.3,113.1 1045.3,303.9 1091.9,303.9 1091.9,322.7 1137.2,322.7 1137.2,234 
		1148.8,226.2 1209.7,226.2 1221.3,236.2 1221.3,341.6 1253.7,341.6 1253.7,402.6 1284.7,402.6 1284.7,463.6 1284.7,768 	"/>
</g>
</svg>
