<?xml version="1.0" encoding="utf-8"?>
<!-- Generator: Adobe Illustrator 21.0.0, SVG Export Plug-In . SVG Version: 6.00 Build 0)  -->
<svg version="1.1" id="Layer_1" xmlns="http://www.w3.org/2000/svg" xmlns:xlink="http://www.w3.org/1999/xlink" x="0px" y="0px"
	 viewBox="0 0 412 286" style="enable-background:new 0 0 412 286;" xml:space="preserve">
<style type="text/css">
	.st0{fill:#41D2FF;}
</style>
<g>
	<g>
		<path class="st0" d="M223.2,70l-18,0.2l0.4,49.8l-10,0.1l-0.4-49.8l-17.9,0.2l-0.1-8.1l45.9-0.4L223.2,70z"/>
		<path class="st0" d="M241.1,98.1l0.2,21.5l-10.1,0.1l-0.5-57.9l22.1-0.2c3.4,0,6.4,0.4,9,1.3c2.6,0.9,4.8,2.2,6.7,3.8
			c1.8,1.6,3.2,3.6,4.2,5.8c1,2.2,1.5,4.7,1.5,7.3c0,2.8-0.4,5.3-1.3,7.6c-0.9,2.2-2.3,4.1-4.1,5.7c-1.8,1.6-4,2.8-6.6,3.6
			c-2.6,0.8-5.6,1.3-9,1.3L241.1,98.1z M241.1,90.1l12.1-0.1c1.9,0,3.6-0.3,5-0.8s2.5-1.2,3.4-2.1c0.9-0.9,1.5-1.9,1.9-3.1
			c0.4-1.2,0.6-2.5,0.6-4c0-1.4-0.2-2.6-0.6-3.9c-0.4-1.2-1.1-2.3-2-3.3c-0.9-1-2.1-1.7-3.5-2.3c-1.4-0.6-3.1-0.8-5-0.8l-12.1,0.1
			L241.1,90.1z"/>
		<path class="st0" d="M329.3,91.5c0,4.4-0.5,8.3-1.6,11.8c-1.1,3.5-2.7,6.5-4.8,8.9c-2.1,2.4-4.6,4.3-7.5,5.7c-2.9,1.3-6.2,2-9.8,2
			c-3.6,0-6.8-0.6-9.8-1.9c-3-1.3-5.5-3.1-7.7-5.5c-2.2-2.4-3.8-5.3-5-8.8c-1.2-3.5-1.8-7.4-1.9-11.8l0-2.9c0-4.4,0.5-8.4,1.7-11.9
			c1.1-3.5,2.8-6.5,4.9-8.9c2.1-2.5,4.6-4.3,7.5-5.7c2.9-1.3,6.2-2,9.7-2c3.6,0,6.9,0.6,9.8,1.9c3,1.3,5.5,3.1,7.6,5.5
			c2.1,2.4,3.8,5.4,5,8.9c1.2,3.5,1.8,7.4,1.8,11.8L329.3,91.5z M319.2,88.5c0-3.2-0.4-6.1-1-8.6c-0.6-2.5-1.6-4.5-2.8-6.2
			c-1.2-1.7-2.7-2.9-4.4-3.8c-1.7-0.8-3.7-1.3-5.9-1.2c-2.1,0-4.1,0.5-5.8,1.3c-1.7,0.9-3.2,2.2-4.4,3.8c-1.2,1.7-2.1,3.8-2.7,6.2
			c-0.6,2.5-0.9,5.3-0.9,8.6l0,3c0,3.2,0.4,6.1,1,8.6c0.7,2.5,1.6,4.6,2.9,6.2c1.2,1.7,2.7,2.9,4.5,3.8c1.7,0.8,3.7,1.3,5.8,1.2
			c4.5,0,7.9-1.8,10.2-5.2c2.4-3.4,3.5-8.4,3.5-14.9L319.2,88.5z"/>
		<path class="st0" d="M374.5,60.6l10.1-0.1l0.5,57.9l-10.1,0.1l-0.4-41.2l-25,41.4l-10.1,0.1L339,60.9l10.1-0.1l0.4,41.3
			L374.5,60.6z M374.7,45.9c0,1.6-0.3,3.2-0.9,4.5s-1.4,2.6-2.5,3.6c-1.1,1-2.4,1.8-4,2.3c-1.6,0.6-3.4,0.8-5.3,0.9
			c-2,0-3.8-0.2-5.4-0.8c-1.6-0.5-2.9-1.3-4.1-2.3c-1.1-1-2-2.2-2.6-3.5c-0.6-1.4-0.9-2.9-0.9-4.5l7.2-0.1c0,0.7,0.1,1.4,0.3,2.1
			c0.2,0.7,0.5,1.3,1,1.8c0.5,0.5,1,0.9,1.7,1.2c0.7,0.3,1.6,0.4,2.6,0.4c1,0,1.9-0.2,2.6-0.5c0.7-0.3,1.3-0.7,1.7-1.2
			c0.4-0.5,0.7-1.1,0.9-1.8c0.2-0.7,0.3-1.4,0.3-2.1L374.7,45.9z"/>
	</g>
	<g>
		<path class="st0" d="M204.2,234.8h-17.4V134.4h17.4V234.8z"/>
		<path class="st0" d="M296.3,148.5h-31.3v86.4h-17.3v-86.4h-31v-14.1h79.7V148.5z"/>
		<path class="st0" d="M343.3,182l23.1-47.6h19.3l-33.7,63.5v37h-17.5v-37l-33.7-63.5h19.4L343.3,182z"/>
	</g>
	<g>
		<path class="st0" d="M168.7,179.3c-0.8,8.8-2.9,16.9-6.2,24.3c-3.3,7.4-7.8,13.8-13.7,19.3c-5.8,5.4-12.9,9.6-21.4,12.7
			c-8.4,3-18.1,4.6-29.1,4.6c-11,0-20.9-2-29.9-6c-8.9-4-16.5-9.6-22.8-17c-6.3-7.3-11.1-16.2-14.5-26.7c-3.4-10.4-5-22.1-5-35.1
			v-14.5c0-12.9,1.7-24.6,5.2-35c3.4-10.5,8.4-19.4,14.8-26.8S60.3,66,69.4,62c9.1-4,19.2-6,30.5-6c10.7,0,20.1,1.5,28.3,4.6
			c8.2,3.1,15.2,7.3,20.9,12.8c5.7,5.5,10.2,12,13.4,19.5c3.2,7.6,5.3,15.8,6.2,24.7h-31c-0.7-5.7-1.8-10.8-3.4-15.3
			c-1.6-4.5-3.9-8.3-6.8-11.5c-3-3.2-6.7-5.6-11.2-7.2c-4.5-1.6-10-2.5-16.4-2.5c-7.1,0-13.2,1.3-18.5,4c-5.3,2.7-9.7,6.5-13.2,11.6
			c-3.5,5-6.2,11.3-7.9,18.6c-1.8,7.4-2.6,15.8-2.6,25.2v14.8c0,8.9,0.8,17.1,2.3,24.4c1.6,7.3,4,13.6,7.3,18.8
			c3.3,5.2,7.5,9.3,12.7,12.1c5.2,2.9,11.4,4.3,18.6,4.3c6.7,0,12.4-0.8,17-2.3c4.6-1.6,8.5-3.9,11.5-6.9c3-3,5.4-6.8,7.1-11.2
			c1.7-4.4,2.9-9.5,3.6-15.3H168.7z"/>
	</g>
</g>
</svg>
