<?xml version="1.0" encoding="utf-8"?>
<!-- Generator: Adobe Illustrator 21.0.0, SVG Export Plug-In . SVG Version: 6.00 Build 0)  -->
<svg version="1.1" id="Layer_1" xmlns="http://www.w3.org/2000/svg" xmlns:xlink="http://www.w3.org/1999/xlink" x="0px" y="0px"
	 viewBox="0 0 1366 5628" style="enable-background:new 0 0 1366 5628;" xml:space="preserve">
<style type="text/css">
	.st0{fill-rule:evenodd;clip-rule:evenodd;fill:#726FFF;}
</style>
<path class="st0" d="M535,633.6c181.6-9.9,233.2,134.5,358,103.9c117-28.7,107.5-164.4,285-366.4c68.4-77.8,134.2-131,188-169.9
	V43.6c-95.5-3.4-231.4,8.4-363,19.1C518.1,102.1,203.9,117.2,0,140.4v412.9c31.1-11.7,65.5-24.4,104-37.8
	c163.8-56.8,278.2-82,507-132.3c326.7-71.9,391.1-111.2,423-49.2c39.7,77.1-3.3,300.3-155,311.7c-71.4,5.4-94.7-39.3-178-64.5
	c-215.1-65.2-501.9,98.6-504,230.8c-1.6,99.4,157.6,185.2,248,218.8c287.2,106.6,517-77.2,575,12c47,72.3-38.7,293.6-183,348.9
	c-229,87.7-462-298-618-203.4c-81.3,49.3-88.6,196.7-98,388.3c-10.6,214.6-37.5,437.7,56,493.3c104.2,61.9,238.3-150.8,372-88.6
	c101.2,47.1,167,235.2,118,357.7c-74.6,186.4-363.6,90.8-473,286.6c-102.3,183.1,10.1,517.9,135,542.5
	c98.9,19.5,207.4-155,347-379.5c180-289.4,217.2-465.8,262-456.1c59.3,12.9,78.6,340.2-3,638.8c-44.4,162.3-104.8,383.5-282,502
	c-213.4,142.8-376.9-9.8-510,123.6c-157.3,157.7-138.7,580.9,45,740.5c183.8,159.7,403.6-56.7,604,86.4
	c303.3,216.6,129.1,947.8,197,958.1c66.6,10.1,351.1-675.2,93-983.3c-152.8-182.4-464.4-195.2-505-196.9
	c-209.2-8.6-288.7,68.8-375,2.2c-143.4-110.7-132.2-484.9-5-561.1c84.8-50.8,158.5,68.4,304,52.5c206.2-22.5,336.2-292,426-478
	c25-51.9,320.9-678.8,113-922c-5.3-6.2-79.8-91.4-147-71.1c-66.7,20.1-76.9,129.3-121,262.5c-52.8,159.8-191.1,465.5-350,471.4
	c-93.7,3.5-194.9-97.1-192-175c1-26.4,14.5-64.5,274-240.6c134.6-91.3,153.7-96.5,183-138.9c60.3-87.4,104.8-247.7,31-369.7
	c-56.6-93.6-163-131.7-245-126.9c-106.3,6.2-135.3,82.3-192,61.3c-102-37.9-97.4-317.7-96-403.6c2.1-127.9,4.9-301.3,74-327
	c84.4-31.5,150.7,201.2,361,259.2c125.1,34.5,283.5,2.3,380-111.6c91.7-108.3,132-295.7,65-376.3c-31.6-37.9-91.1-40-209-42.7
	c-213.8-4.8-260.5,36.3-372,3.3c-91.3-27-213.8-100-211-176.1C275.9,714.6,412.6,640.3,535,633.6z"/>
</svg>
