<?xml version="1.0" encoding="utf-8"?>
<!-- Generator: Adobe Illustrator 21.0.0, SVG Export Plug-In . SVG Version: 6.00 Build 0)  -->
<svg version="1.1" id="Layer_1" xmlns="http://www.w3.org/2000/svg" xmlns:xlink="http://www.w3.org/1999/xlink" x="0px" y="0px"
	 viewBox="0 0 1366 5628" style="enable-background:new 0 0 1366 5628;" xml:space="preserve">
<style type="text/css">
	.st0{fill-rule:evenodd;clip-rule:evenodd;fill:#7F8BFF;}
</style>
<path class="st0" d="M873,419.4c187-36.4,371.3-96.4,493-150.3V147.2c-65.7-0.5-159.2,1.6-291,6.4C382,179.1,109.9,225.3,0,272.7
	v270.1c1,0.8,2,1.6,3,2.4C110.3,626.8,249.8,497,381,590c61.1,43.4,41.1,78.8,102,119.2c103.5,68.6,191.1-13.8,370-7.7
	c62.3,2.1,261.2,8.9,342,147.7c56.8,97.4,48.6,248.3-15,351.1c-82.9,134-263.4,166.6-621,226.4c-224,37.4-267.7,26.4-321,80.9
	c-174.4,178.4-78.2,675.8,61,709.9c69.6,17,109.3-91.7,355-338c211-211.5,354.5-355.3,434-312.8c90.3,48.3,79.1,326.8-5,521.7
	c-17.6,40.8-92.3,214.1-263,307.3c-181.5,99.2-295.3,11.6-421,128c-77.3,71.5-137.2,200-102,273.4c51.9,108.3,316,108.4,513,3.3
	c269.8-144,354.5-453.8,413-427.7c44.4,19.9,19.2,209.3-13,335.8c-26.8,105.2-113.2,444.5-383,602.7
	c-247.7,145.2-439.9,14.6-538,167.3c-52.5,81.7-35,185.8,2,390.5c55.8,308.3,179.6,643.5,240,628.9c55.6-13.4-38.4-299.3,110-569.8
	c110.5-201.5,330.4-348.8,421-289.8c93.7,61,35.9,334.3-38,683.6C947.2,4684.8,866.9,4792,830,4836
	c-143.5,170.9-320.8,207.5-317,217.7c5.1,13.6,339.2-14.2,493-260.3c132.7-212.3-18.9-347,123-728.4c46.5-125,103.9-220.9,74-345.6
	c-19-79.2-72.8-169-154-201.3c-151.5-60.3-340.4,102.6-431,253.8c-129.2,215.4-85.7,451.8-128,455c-28.7,2.2-56.8-113.7-112-345.6
	c-61.6-259-56.7-306.5-33-341.3c45.9-67.2,129.9-39,263-61.3c287-48.1,471.8-275.6,490-298.6c164.7-208.5,179.6-449,189-600.5
	c2.7-43.4,16.1-294.5-46-312.8c-39-11.5-70.3,80-181,206.7c-43.1,49.4-186.9,205.5-396,282.2c-86.6,31.8-270.8,81.6-306,16.4
	c-23.8-44.2,25.1-133.1,81-183.8c75.2-68.2,144.2-50.3,253-77.7c194.6-48.9,319.5-193.2,347-226.4c133.3-161,156.6-345.5,166-427.7
	c9.9-86.9,35.3-310.1-61-368.6c-57.1-34.7-132.1,3.5-209,42.7c-96.4,49.1-183.8,119.9-302,259.2c-179.8,211.9-233.8,349.8-296,332.5
	c-25-6.9-41.3-47.7-74-129.1c-36.7-91.5-65.2-162.5-58-255.9c2.7-35,12.1-156.5,89-215.5c66.2-50.8,126.7-12.4,258-8.8
	c190.3,5.2,335.5-68.1,426-113.8c146.7-74,241-121.6,283-237.3c50.4-138.7,2-310.2-92-408c-69.2-72-149.7-90-222-106.1
	c-137.7-30.8-183,43.3-306,10.9c-93-24.5-193.2-94.7-186-142.2C463.9,458.3,630.3,466.6,873,419.4z"/>
</svg>
