<?xml version="1.0" encoding="utf-8"?>
<!-- Generator: Adobe Illustrator 21.0.0, SVG Export Plug-In . SVG Version: 6.00 Build 0)  -->
<svg version="1.1" id="Layer_1" xmlns="http://www.w3.org/2000/svg" xmlns:xlink="http://www.w3.org/1999/xlink" x="0px" y="0px"
	 viewBox="0 0 1366 5628" style="enable-background:new 0 0 1366 5628;" xml:space="preserve">
<style type="text/css">
	.st0{fill-rule:evenodd;clip-rule:evenodd;fill:#9AA9FF;}
</style>
<path class="st0" d="M1105,409c114.3-40,200.1-65.4,261-83.7V204.9c-74.5-22.7-180.3-44.8-306-61.6c-370.5-49.6-777.2-35.1-1060,19
	v407c341.7-58.5,692.5-2.7,908,125.3c132.1,78.5,298,177,283,257c-5.2,27.7-33.7,62.5-331,130.2c-340,77.4-441.4,63.4-505,159.7
	c-59.7,90.4-50.5,224-8,311.7c62.7,129.2,200.2,163.9,283,184.8c280.1,70.7,411.2-84,544,12c101.3,73.2,164.1,263.8,110,381.7
	c-116.8,254.5-691.6-18.4-907,282.2c-154.6,215.8-52.1,626.7,63,658.4c88.5,24.4,143.3-187,396-315c153.3-77.6,377.3-123.5,420-47
	c59.7,106.8-196,520-545,618c-212.5,59.6-348.2-28.9-434,78.8c-87.5,109.8-67.3,354.1,48,463.8c144.9,137.8,330.7-40.6,589,93
	c160.4,82.9,293.8,257.6,262,338c-50.7,128.3-475.9-100.4-782,156.4c-113.8,95.5-161.5,216.5-182,270.2
	c-151.5,397.2,72.5,856.6,130,846.6c35.7-6.2,52.2-201,22-365.3c-35.6-193.9-114.2-226-111-351.1c4.2-164,144.9-324.9,289-392.7
	c258.8-121.6,439.8,98.7,615-33.9c124.2-94,177.6-313.9,115-435.3c-85.5-166-398.4-169.4-512-170.6c-146.6-1.6-220.1,27.7-290-32.8
	c-77-66.6-120.2-216.8-71-292c89.7-137.3,394.7,115.2,649-47c202.5-129.2,239.4-436.3,249-516.3c12.3-102.7,36.8-306.3-62-383.9
	c-136.7-107.4-419,97.3-453,122.5c-194.1,143.6-243.1,306.8-314,284.4c-64.1-20.3-90.3-174.8-69-290.9
	c33.1-180.2,181.7-275,197-284.4c236.6-145.6,439.1,70.4,617-75.5c126.5-103.7,124.5-295.1,124-313.9
	c-4.7-194.4-146.2-369.1-289-394.8c-117.4-21.1-151.2,73.8-311,68.9c-19.8-0.6-249-10.5-293-156.4c-35.2-116.8,61.8-275.8,175-315
	c122.7-42.5,182.1,84.6,334,67.8c193.7-21.4,367.6-257.8,332-374.1c-15-49-57.4-44.7-193-137.8C979.6,677.4,868.3,601,877,534.8
	C881.6,499.8,918.9,474.2,1105,409z"/>
</svg>
